<mxfile host="Electron" modified="2024-04-24T10:14:53.110Z" agent="Mozilla/5.0 (Windows NT 10.0; Win64; x64) AppleWebKit/537.36 (KHTML, like Gecko) draw.io/24.1.0 Chrome/120.0.6099.109 Electron/28.1.0 Safari/537.36" etag="fcHacxT6VgbEyOHjEjLn" version="24.1.0" type="device">
  <diagram name="Page-1" id="Wn5tr7XZrIVLodjelaHo">
    <mxGraphModel dx="1290" dy="629" grid="1" gridSize="10" guides="1" tooltips="1" connect="1" arrows="1" fold="1" page="1" pageScale="1" pageWidth="850" pageHeight="1100" math="0" shadow="0">
      <root>
        <mxCell id="0" />
        <mxCell id="1" parent="0" />
        <mxCell id="7ZnsuMInZ4W-M6muOGCD-3" value="" style="edgeStyle=orthogonalEdgeStyle;rounded=0;orthogonalLoop=1;jettySize=auto;html=1;" edge="1" parent="1" source="7ZnsuMInZ4W-M6muOGCD-1" target="7ZnsuMInZ4W-M6muOGCD-2">
          <mxGeometry relative="1" as="geometry" />
        </mxCell>
        <mxCell id="7ZnsuMInZ4W-M6muOGCD-1" value="" style="ellipse;fillColor=strokeColor;html=1;" vertex="1" parent="1">
          <mxGeometry x="600" y="115" width="30" height="30" as="geometry" />
        </mxCell>
        <mxCell id="7ZnsuMInZ4W-M6muOGCD-5" value="" style="edgeStyle=orthogonalEdgeStyle;rounded=0;orthogonalLoop=1;jettySize=auto;html=1;" edge="1" parent="1" source="7ZnsuMInZ4W-M6muOGCD-2" target="7ZnsuMInZ4W-M6muOGCD-4">
          <mxGeometry relative="1" as="geometry" />
        </mxCell>
        <mxCell id="7ZnsuMInZ4W-M6muOGCD-2" value="&lt;span style=&quot;font-size: 14px;&quot;&gt;Health Care Provider&lt;/span&gt;&lt;br&gt;&lt;div&gt;&lt;span style=&quot;font-size: 14px;&quot;&gt;Enter Patient Information&lt;/span&gt;&lt;/div&gt;" style="rounded=0;whiteSpace=wrap;html=1;" vertex="1" parent="1">
          <mxGeometry x="550" y="210" width="130" height="70" as="geometry" />
        </mxCell>
        <mxCell id="7ZnsuMInZ4W-M6muOGCD-7" value="" style="edgeStyle=orthogonalEdgeStyle;rounded=0;orthogonalLoop=1;jettySize=auto;html=1;" edge="1" parent="1" source="7ZnsuMInZ4W-M6muOGCD-4" target="7ZnsuMInZ4W-M6muOGCD-6">
          <mxGeometry relative="1" as="geometry" />
        </mxCell>
        <mxCell id="7ZnsuMInZ4W-M6muOGCD-10" value="" style="edgeStyle=orthogonalEdgeStyle;rounded=0;orthogonalLoop=1;jettySize=auto;html=1;" edge="1" parent="1" source="7ZnsuMInZ4W-M6muOGCD-4" target="7ZnsuMInZ4W-M6muOGCD-9">
          <mxGeometry relative="1" as="geometry" />
        </mxCell>
        <mxCell id="7ZnsuMInZ4W-M6muOGCD-4" value="Has insutrance" style="rhombus;whiteSpace=wrap;html=1;rounded=0;" vertex="1" parent="1">
          <mxGeometry x="575" y="355" width="80" height="35" as="geometry" />
        </mxCell>
        <mxCell id="7ZnsuMInZ4W-M6muOGCD-15" style="edgeStyle=orthogonalEdgeStyle;rounded=0;orthogonalLoop=1;jettySize=auto;html=1;entryX=1;entryY=0.5;entryDx=0;entryDy=0;" edge="1" parent="1" source="7ZnsuMInZ4W-M6muOGCD-6" target="7ZnsuMInZ4W-M6muOGCD-9">
          <mxGeometry relative="1" as="geometry">
            <Array as="points">
              <mxPoint x="760" y="428" />
              <mxPoint x="695" y="428" />
              <mxPoint x="695" y="488" />
            </Array>
          </mxGeometry>
        </mxCell>
        <mxCell id="7ZnsuMInZ4W-M6muOGCD-6" value="Insurance Company" style="whiteSpace=wrap;html=1;rounded=0;" vertex="1" parent="1">
          <mxGeometry x="720" y="342.5" width="120" height="60" as="geometry" />
        </mxCell>
        <mxCell id="7ZnsuMInZ4W-M6muOGCD-8" value="[Yes]" style="text;html=1;align=center;verticalAlign=middle;resizable=0;points=[];autosize=1;strokeColor=none;fillColor=none;" vertex="1" parent="1">
          <mxGeometry x="655" y="338" width="50" height="30" as="geometry" />
        </mxCell>
        <mxCell id="7ZnsuMInZ4W-M6muOGCD-12" value="" style="edgeStyle=orthogonalEdgeStyle;rounded=0;orthogonalLoop=1;jettySize=auto;html=1;" edge="1" parent="1" source="7ZnsuMInZ4W-M6muOGCD-9" target="7ZnsuMInZ4W-M6muOGCD-11">
          <mxGeometry relative="1" as="geometry" />
        </mxCell>
        <mxCell id="7ZnsuMInZ4W-M6muOGCD-9" value="Assign Room" style="whiteSpace=wrap;html=1;rounded=0;" vertex="1" parent="1">
          <mxGeometry x="555" y="457.5" width="120" height="60" as="geometry" />
        </mxCell>
        <mxCell id="7ZnsuMInZ4W-M6muOGCD-14" value="" style="edgeStyle=orthogonalEdgeStyle;rounded=0;orthogonalLoop=1;jettySize=auto;html=1;" edge="1" parent="1" source="7ZnsuMInZ4W-M6muOGCD-11" target="7ZnsuMInZ4W-M6muOGCD-13">
          <mxGeometry relative="1" as="geometry" />
        </mxCell>
        <mxCell id="7ZnsuMInZ4W-M6muOGCD-11" value="Print Admission" style="whiteSpace=wrap;html=1;rounded=0;" vertex="1" parent="1">
          <mxGeometry x="555" y="597.5" width="120" height="60" as="geometry" />
        </mxCell>
        <mxCell id="7ZnsuMInZ4W-M6muOGCD-13" value="" style="ellipse;html=1;shape=endState;fillColor=#000000;strokeColor=#ff0000;" vertex="1" parent="1">
          <mxGeometry x="600" y="700" width="30" height="30" as="geometry" />
        </mxCell>
        <mxCell id="7ZnsuMInZ4W-M6muOGCD-16" value="[No]" style="text;html=1;align=center;verticalAlign=middle;resizable=0;points=[];autosize=1;strokeColor=none;fillColor=none;rotation=90;" vertex="1" parent="1">
          <mxGeometry x="565" y="418" width="50" height="30" as="geometry" />
        </mxCell>
      </root>
    </mxGraphModel>
  </diagram>
</mxfile>
